# Blender 5.0.0 Alpha
# www.blender.org
mtllib fire.mtl
o Sphere
v 0.000000 0.198561 -0.980088
v 0.000000 0.385952 -0.891319
v 0.000000 0.558510 -0.623921
v 0.000000 0.709606 -0.200626
v 0.000000 0.870118 0.911467
v -0.038060 0.194813 -0.980102
v -0.074658 0.378599 -0.891344
v -0.108386 0.547835 -0.623958
v -0.137950 0.696019 -0.200673
v -0.162211 0.817454 0.321076
v -0.169504 0.853423 0.911409
v -0.157070 0.790208 1.395400
v -0.153260 0.770486 1.650485
v -0.074658 0.183711 -0.980141
v -0.146446 0.356822 -0.891421
v -0.212607 0.516220 -0.624070
v -0.270598 0.655781 -0.200815
v -0.318189 0.770139 0.320909
v -0.332493 0.803979 0.911235
v -0.308104 0.744392 1.395237
v -0.300630 0.725782 1.650327
v -0.108386 0.165683 -0.980205
v -0.212607 0.321458 -0.891547
v -0.308658 0.464880 -0.624252
v -0.392847 0.590437 -0.201047
v -0.461939 0.693304 0.320637
v -0.482704 0.723687 0.910953
v -0.447298 0.669992 1.394974
v -0.436448 0.653187 1.650070
v -0.137950 0.141421 -0.980291
v -0.270598 0.273867 -0.891715
v -0.392847 0.395788 -0.624496
v -0.500000 0.502500 -0.201358
v -0.587937 0.589901 0.320271
v -0.614363 0.615633 0.910574
v -0.569302 0.569866 1.394620
v -0.555493 0.555490 1.649724
v -0.162211 0.111858 -0.980395
v -0.318189 0.215877 -0.891921
v -0.461939 0.311600 -0.624794
v -0.587938 0.395348 -0.201738
v -0.691341 0.463904 0.319825
v -0.722411 0.483971 0.910112
v -0.669427 0.447862 1.394188
v -0.653191 0.436446 1.649302
v -0.180240 0.078130 -0.980515
v -0.353553 0.149717 -0.892155
v -0.513279 0.215550 -0.625134
v -0.653281 0.273100 -0.202170
v -0.768177 0.320155 0.319316
v -0.802695 0.333759 0.909584
v -0.743827 0.308669 1.393696
v -0.725787 0.300629 1.648822
v -0.191342 0.041532 -0.980644
v -0.375330 0.077928 -0.892409
v -0.544895 0.111329 -0.625503
v -0.693520 0.140452 -0.202640
v -0.815493 0.164178 0.318763
v -0.852131 0.170772 0.909012
v -0.789642 0.157636 1.393161
v -0.770491 0.153260 1.648300
v -0.195090 0.003472 -0.980779
v -0.382683 0.003271 -0.892673
v -0.555570 0.002944 -0.625887
v -0.707107 0.002503 -0.203128
v -0.831469 0.001967 0.318189
v -0.868819 0.001274 0.908417
v -0.805111 0.000567 1.392606
v -0.785586 0.000000 1.647757
v -0.191342 -0.034588 -0.980914
v -0.375330 -0.071386 -0.892938
v -0.544895 -0.105442 -0.626271
v -0.693520 -0.135445 -0.203617
v -0.815493 -0.160243 0.317615
v -0.852119 -0.168222 0.907822
v -0.789640 -0.156501 1.392050
v -0.770491 -0.153259 1.647215
v -0.180240 -0.071185 -0.981044
v -0.353553 -0.143175 -0.893192
v -0.513280 -0.209662 -0.626640
v -0.653281 -0.268093 -0.204086
v -0.768177 -0.316220 0.317062
v -0.802673 -0.331202 0.907250
v -0.743824 -0.307533 1.391515
v -0.725787 -0.300629 1.646693
v -0.162212 -0.104913 -0.981163
v -0.318190 -0.209335 -0.893426
v -0.461939 -0.305712 -0.626980
v -0.587938 -0.390341 -0.204519
v -0.691341 -0.459970 0.316554
v -0.722382 -0.481403 0.906723
v -0.669423 -0.446724 1.391023
v -0.653191 -0.436445 1.646212
v 0.000000 0.003540 -0.999994
v -0.137950 -0.134476 -0.981267
v -0.270598 -0.267325 -0.893631
v -0.392847 -0.389901 -0.627278
v -0.500000 -0.497493 -0.204899
v -0.587938 -0.585967 0.316107
v -0.614332 -0.613055 0.906261
v -0.569297 -0.568726 1.390591
v -0.555494 -0.555490 1.645791
v -0.108386 -0.158738 -0.981353
v -0.212607 -0.314917 -0.893800
v -0.308658 -0.458993 -0.627523
v -0.392847 -0.585431 -0.205210
v -0.461940 -0.689370 0.315741
v -0.482676 -0.721097 0.905881
v -0.447293 -0.668850 1.390237
v -0.436449 -0.653187 1.645445
v -0.074658 -0.176766 -0.981417
v -0.146447 -0.350280 -0.893925
v -0.212607 -0.510333 -0.627704
v -0.270598 -0.650774 -0.205442
v -0.318190 -0.766206 0.315469
v -0.332472 -0.801379 0.905599
v -0.308101 -0.743250 1.389974
v -0.300631 -0.725783 1.645188
v -0.038060 -0.187868 -0.981457
v -0.074658 -0.372057 -0.894002
v -0.108386 -0.541948 -0.627816
v -0.137950 -0.691012 -0.205584
v -0.162212 -0.813521 0.315302
v -0.169492 -0.850816 0.905426
v -0.157068 -0.789064 1.389812
v -0.153260 -0.770487 1.645029
v -0.000000 -0.191617 -0.981470
v -0.000000 -0.379410 -0.894028
v -0.000000 -0.552623 -0.627854
v -0.000000 -0.704599 -0.205632
v -0.000000 -0.829497 0.315245
v 0.000000 -0.867509 0.905367
v -0.000000 -0.804534 1.389757
v -0.000000 -0.785581 1.644976
v 0.038060 -0.187868 -0.981457
v 0.074658 -0.372057 -0.894002
v 0.108386 -0.541948 -0.627816
v 0.137950 -0.691012 -0.205584
v 0.162212 -0.813521 0.315301
v 0.169492 -0.850816 0.905426
v 0.157068 -0.789064 1.389811
v 0.153260 -0.770487 1.645029
v 0.074658 -0.176766 -0.981417
v 0.146447 -0.350280 -0.893925
v 0.212607 -0.510333 -0.627704
v 0.270598 -0.650774 -0.205442
v 0.318189 -0.766206 0.315469
v 0.332472 -0.801379 0.905599
v 0.308101 -0.743250 1.389974
v 0.300631 -0.725783 1.645188
v 0.108386 -0.158738 -0.981353
v 0.212607 -0.314917 -0.893800
v 0.308658 -0.458993 -0.627523
v 0.392847 -0.585431 -0.205210
v 0.461940 -0.689370 0.315741
v 0.482676 -0.721097 0.905881
v 0.447293 -0.668851 1.390237
v 0.436448 -0.653187 1.645445
v 0.137950 -0.134476 -0.981268
v 0.270598 -0.267325 -0.893631
v 0.392847 -0.389901 -0.627278
v 0.500000 -0.497493 -0.204899
v 0.587937 -0.585967 0.316107
v 0.614333 -0.613055 0.906260
v 0.569297 -0.568727 1.390591
v 0.555493 -0.555490 1.645791
v 0.162212 -0.104913 -0.981163
v 0.318190 -0.209335 -0.893426
v 0.461940 -0.305713 -0.626980
v 0.587938 -0.390342 -0.204520
v 0.691341 -0.459970 0.316553
v 0.722383 -0.481403 0.906723
v 0.669423 -0.446724 1.391023
v 0.653191 -0.436446 1.646212
v 0.180240 -0.071185 -0.981043
v 0.353553 -0.143175 -0.893192
v 0.513280 -0.209662 -0.626640
v 0.653281 -0.268093 -0.204087
v 0.768177 -0.316221 0.317062
v 0.802673 -0.331202 0.907250
v 0.743824 -0.307533 1.391516
v 0.725787 -0.300629 1.646693
v 0.191342 -0.034588 -0.980914
v 0.375330 -0.071386 -0.892938
v 0.544895 -0.105442 -0.626271
v 0.693520 -0.135445 -0.203617
v 0.815493 -0.160244 0.317615
v 0.852119 -0.168222 0.907822
v 0.789640 -0.156501 1.392050
v 0.770492 -0.153260 1.647215
v 0.195090 0.003472 -0.980779
v 0.382683 0.003271 -0.892673
v 0.555570 0.002944 -0.625887
v 0.707107 0.002503 -0.203129
v 0.831469 0.001967 0.318188
v 0.868819 0.001274 0.908417
v 0.805111 0.000567 1.392606
v 0.785587 -0.000000 1.647757
v 0.191342 0.041532 -0.980644
v 0.375330 0.077928 -0.892409
v 0.544895 0.111329 -0.625504
v 0.693520 0.140452 -0.202640
v 0.815493 0.164177 0.318763
v 0.852131 0.170773 0.909012
v 0.789642 0.157636 1.393162
v 0.770492 0.153259 1.648300
v 0.180240 0.078130 -0.980515
v 0.353553 0.149717 -0.892155
v 0.513280 0.215550 -0.625135
v 0.653281 0.273100 -0.202171
v 0.768178 0.320154 0.319315
v 0.802695 0.333759 0.909584
v 0.743827 0.308668 1.393696
v 0.725788 0.300629 1.648822
v 0.162212 0.111858 -0.980395
v 0.318190 0.215877 -0.891921
v 0.461940 0.311600 -0.624795
v 0.587938 0.395348 -0.201738
v 0.691342 0.463904 0.319824
v 0.722411 0.483971 0.910111
v 0.669428 0.447861 1.394189
v 0.653192 0.436446 1.649302
v 0.137950 0.141421 -0.980291
v 0.270598 0.273867 -0.891715
v 0.392847 0.395789 -0.624497
v 0.500000 0.502500 -0.201359
v 0.587938 0.589901 0.320270
v 0.614363 0.615634 0.910574
v 0.569302 0.569866 1.394621
v 0.555494 0.555490 1.649724
v 0.108386 0.165683 -0.980205
v 0.212608 0.321459 -0.891547
v 0.308658 0.464881 -0.624252
v 0.392847 0.590437 -0.201047
v 0.461940 0.693304 0.320636
v 0.482704 0.723688 0.910953
v 0.447298 0.669992 1.394975
v 0.436449 0.653188 1.650070
v 0.074658 0.183711 -0.980141
v 0.146447 0.356822 -0.891422
v 0.212608 0.516221 -0.624070
v 0.270598 0.655781 -0.200816
v 0.318190 0.770140 0.320908
v 0.332494 0.803980 0.911235
v 0.308105 0.744393 1.395237
v 0.300631 0.725783 1.650327
v 0.038060 0.194813 -0.980102
v 0.074658 0.378599 -0.891345
v 0.108386 0.547836 -0.623958
v 0.137950 0.696019 -0.200674
v 0.162212 0.817455 0.321076
v 0.169504 0.853424 0.911408
v 0.157070 0.790208 1.395400
v 0.153260 0.770487 1.650485
v 0.000000 0.833431 0.321132
v 0.000000 0.805678 1.395455
v 0.000000 0.785582 1.650539
vn -0.0000 0.2785 -0.9604
vn -0.0000 0.6689 -0.7433
vn -0.0000 0.8983 -0.4393
vn -0.0000 0.9591 -0.2830
vn -0.0000 0.9994 0.0350
vn -0.0537 0.2732 -0.9605
vn -0.1300 0.6561 -0.7434
vn -0.1750 0.8811 -0.4393
vn -0.1869 0.9407 -0.2831
vn -0.1929 0.9703 -0.1462
vn -0.1950 0.9802 0.0349
vn -0.1941 0.9753 0.1054
vn -0.1369 0.6856 0.7150
vn -0.1053 0.2576 -0.9605
vn -0.2550 0.6182 -0.7435
vn -0.3432 0.8301 -0.4394
vn -0.3667 0.8862 -0.2831
vn -0.3784 0.9140 -0.1463
vn -0.3825 0.9233 0.0349
vn -0.3807 0.9187 0.1053
vn -0.2685 0.6457 0.7149
vn -0.1528 0.2321 -0.9606
vn -0.3703 0.5567 -0.7436
vn -0.4983 0.7473 -0.4395
vn -0.5324 0.7977 -0.2832
vn -0.5493 0.8227 -0.1464
vn -0.5553 0.8309 0.0347
vn -0.5527 0.8268 0.1052
vn -0.3897 0.5808 0.7147
vn -0.1945 0.1979 -0.9607
vn -0.4713 0.4739 -0.7438
vn -0.6343 0.6358 -0.4397
vn -0.6776 0.6786 -0.2834
vn -0.6992 0.6997 -0.1466
vn -0.7067 0.7066 0.0346
vn -0.7034 0.7030 0.1049
vn -0.4960 0.4935 0.7144
vn -0.2288 0.1563 -0.9609
vn -0.5543 0.3729 -0.7441
vn -0.7460 0.5000 -0.4399
vn -0.7969 0.5335 -0.2836
vn -0.8222 0.5499 -0.1467
vn -0.8310 0.5552 0.0344
vn -0.8271 0.5523 0.1046
vn -0.5832 0.3872 0.7141
vn -0.2542 0.1087 -0.9610
vn -0.6160 0.2577 -0.7444
vn -0.8290 0.3449 -0.4402
vn -0.8855 0.3678 -0.2838
vn -0.9137 0.3790 -0.1469
vn -0.9234 0.3824 0.0341
vn -0.9190 0.3803 0.1043
vn -0.6480 0.2659 0.7138
vn -0.2699 0.0571 -0.9612
vn -0.6540 0.1327 -0.7447
vn -0.8802 0.1766 -0.4405
vn -0.9402 0.1880 -0.2840
vn -0.9700 0.1935 -0.1471
vn -0.9802 0.1949 0.0339
vn -0.9755 0.1937 0.1040
vn -0.6878 0.1343 0.7134
vn -0.2752 0.0034 -0.9614
vn -0.6670 0.0026 -0.7451
vn -0.8976 0.0015 -0.4407
vn -0.9588 0.0010 -0.2842
vn -0.9891 0.0005 -0.1474
vn -0.9994 -0.0001 0.0336
vn -0.9946 -0.0004 0.1036
vn -0.7012 -0.0025 0.7130
vn -0.2699 -0.0503 -0.9616
vn -0.6543 -0.1276 -0.7454
vn -0.8805 -0.1736 -0.4410
vn -0.9405 -0.1861 -0.2845
vn -0.9701 -0.1925 -0.1476
vn -0.9802 -0.1951 0.0333
vn -0.9755 -0.1944 0.1032
vn -0.6876 -0.1392 0.7126
vn -0.2543 -0.1019 -0.9617
vn -0.6164 -0.2528 -0.7457
vn -0.8296 -0.3421 -0.4413
vn -0.8860 -0.3660 -0.2847
vn -0.9139 -0.3780 -0.1478
vn -0.9233 -0.3826 0.0331
vn -0.9189 -0.3810 0.1029
vn -0.6477 -0.2707 0.7122
vn -0.2289 -0.1495 -0.9619
vn -0.5549 -0.3682 -0.7460
vn -0.7467 -0.4974 -0.4416
vn -0.7975 -0.5319 -0.2849
vn -0.8225 -0.5491 -0.1480
vn -0.8310 -0.5554 0.0329
vn -0.8269 -0.5529 0.1025
vn -0.5828 -0.3919 0.7119
vn -0.0000 0.0035 -1.0000
vn -0.1947 -0.1913 -0.9620
vn -0.4720 -0.4694 -0.7463
vn -0.6351 -0.6336 -0.4418
vn -0.6783 -0.6773 -0.2851
vn -0.6996 -0.6990 -0.1482
vn -0.7067 -0.7068 0.0327
vn -0.7032 -0.7036 0.1023
vn -0.4956 -0.4981 0.7115
vn -0.1529 -0.2255 -0.9622
vn -0.3709 -0.5524 -0.7465
vn -0.4991 -0.7454 -0.4420
vn -0.5330 -0.7966 -0.2852
vn -0.5497 -0.8221 -0.1483
vn -0.5552 -0.8311 0.0325
vn -0.5525 -0.8272 0.1020
vn -0.3894 -0.5852 0.7113
vn -0.1054 -0.2510 -0.9622
vn -0.2555 -0.6142 -0.7467
vn -0.3438 -0.8285 -0.4421
vn -0.3671 -0.8853 -0.2853
vn -0.3786 -0.9136 -0.1484
vn -0.3824 -0.9234 0.0324
vn -0.3806 -0.9191 0.1019
vn -0.2682 -0.6499 0.7111
vn -0.0537 -0.2666 -0.9623
vn -0.1302 -0.6522 -0.7468
vn -0.1753 -0.8796 -0.4422
vn -0.1872 -0.9400 -0.2854
vn -0.1930 -0.9699 -0.1485
vn -0.1950 -0.9803 0.0323
vn -0.1940 -0.9757 0.1017
vn -0.1367 -0.6898 0.7110
vn -0.0000 -0.2719 -0.9623
vn -0.0000 -0.6651 -0.7468
vn -0.0000 -0.8969 -0.4422
vn -0.0000 -0.9584 -0.2854
vn -0.0000 -0.9889 -0.1485
vn -0.0000 -0.9995 0.0323
vn -0.0000 -0.9948 0.1017
vn -0.0000 -0.7032 0.7109
vn 0.0537 -0.2666 -0.9623
vn 0.1302 -0.6522 -0.7468
vn 0.1753 -0.8796 -0.4422
vn 0.1872 -0.9400 -0.2854
vn 0.1930 -0.9699 -0.1485
vn 0.1950 -0.9803 0.0323
vn 0.1940 -0.9757 0.1017
vn 0.1367 -0.6898 0.7110
vn 0.1054 -0.2510 -0.9622
vn 0.2555 -0.6142 -0.7467
vn 0.3438 -0.8285 -0.4421
vn 0.3671 -0.8853 -0.2853
vn 0.3786 -0.9136 -0.1484
vn 0.3824 -0.9234 0.0324
vn 0.3806 -0.9191 0.1019
vn 0.2682 -0.6499 0.7111
vn 0.1529 -0.2255 -0.9622
vn 0.3709 -0.5524 -0.7465
vn 0.4991 -0.7454 -0.4420
vn 0.5329 -0.7966 -0.2852
vn 0.5497 -0.8221 -0.1483
vn 0.5552 -0.8311 0.0325
vn 0.5525 -0.8272 0.1020
vn 0.3894 -0.5852 0.7113
vn 0.1947 -0.1913 -0.9620
vn 0.4720 -0.4694 -0.7463
vn 0.6351 -0.6336 -0.4418
vn 0.6783 -0.6773 -0.2851
vn 0.6996 -0.6990 -0.1482
vn 0.7067 -0.7068 0.0327
vn 0.7032 -0.7036 0.1023
vn 0.4956 -0.4981 0.7115
vn 0.2289 -0.1495 -0.9619
vn 0.5549 -0.3682 -0.7460
vn 0.7467 -0.4974 -0.4416
vn 0.7975 -0.5319 -0.2849
vn 0.8225 -0.5491 -0.1480
vn 0.8310 -0.5554 0.0329
vn 0.8269 -0.5529 0.1025
vn 0.5828 -0.3919 0.7119
vn 0.2543 -0.1019 -0.9617
vn 0.6164 -0.2528 -0.7457
vn 0.8296 -0.3421 -0.4413
vn 0.8860 -0.3660 -0.2847
vn 0.9139 -0.3780 -0.1478
vn 0.9233 -0.3826 0.0331
vn 0.9189 -0.3810 0.1029
vn 0.6477 -0.2707 0.7122
vn 0.2699 -0.0503 -0.9616
vn 0.6543 -0.1276 -0.7454
vn 0.8805 -0.1736 -0.4410
vn 0.9405 -0.1861 -0.2845
vn 0.9701 -0.1925 -0.1476
vn 0.9802 -0.1951 0.0333
vn 0.9755 -0.1944 0.1032
vn 0.6876 -0.1392 0.7126
vn 0.2752 0.0034 -0.9614
vn 0.6670 0.0026 -0.7451
vn 0.8976 0.0015 -0.4407
vn 0.9588 0.0010 -0.2842
vn 0.9891 0.0005 -0.1474
vn 0.9994 -0.0001 0.0336
vn 0.9946 -0.0004 0.1036
vn 0.7012 -0.0025 0.7130
vn 0.2699 0.0571 -0.9612
vn 0.6540 0.1327 -0.7447
vn 0.8802 0.1766 -0.4405
vn 0.9402 0.1880 -0.2840
vn 0.9700 0.1935 -0.1471
vn 0.9802 0.1949 0.0339
vn 0.9755 0.1937 0.1040
vn 0.6878 0.1343 0.7134
vn 0.2542 0.1087 -0.9610
vn 0.6160 0.2577 -0.7444
vn 0.8290 0.3449 -0.4402
vn 0.8855 0.3678 -0.2838
vn 0.9137 0.3790 -0.1469
vn 0.9234 0.3824 0.0341
vn 0.9190 0.3803 0.1043
vn 0.6480 0.2659 0.7138
vn 0.2288 0.1563 -0.9609
vn 0.5543 0.3729 -0.7441
vn 0.7460 0.5000 -0.4399
vn 0.7969 0.5335 -0.2836
vn 0.8222 0.5499 -0.1467
vn 0.8310 0.5552 0.0344
vn 0.8271 0.5523 0.1046
vn 0.5832 0.3872 0.7141
vn 0.1945 0.1979 -0.9607
vn 0.4713 0.4739 -0.7438
vn 0.6343 0.6358 -0.4397
vn 0.6776 0.6786 -0.2834
vn 0.6992 0.6997 -0.1466
vn 0.7067 0.7066 0.0346
vn 0.7034 0.7030 0.1049
vn 0.4960 0.4935 0.7144
vn 0.1528 0.2321 -0.9606
vn 0.3703 0.5567 -0.7436
vn 0.4983 0.7473 -0.4395
vn 0.5324 0.7977 -0.2832
vn 0.5493 0.8227 -0.1464
vn 0.5553 0.8309 0.0347
vn 0.5527 0.8268 0.1052
vn 0.3897 0.5808 0.7147
vn 0.1053 0.2576 -0.9605
vn 0.2550 0.6182 -0.7435
vn 0.3432 0.8301 -0.4394
vn 0.3667 0.8862 -0.2831
vn 0.3784 0.9140 -0.1463
vn 0.3825 0.9233 0.0349
vn 0.3807 0.9187 0.1053
vn 0.2685 0.6457 0.7149
vn 0.0537 0.2732 -0.9605
vn 0.1300 0.6561 -0.7434
vn 0.1750 0.8811 -0.4393
vn 0.1869 0.9407 -0.2831
vn 0.1929 0.9703 -0.1462
vn 0.1950 0.9802 0.0349
vn 0.1941 0.9753 0.1054
vn 0.1369 0.6856 0.7150
vn -0.0000 0.9893 -0.1462
vn -0.0000 0.9944 0.1055
vn -0.0000 0.6991 0.7150
vt 0.773438 0.127248
vt 0.773438 0.251499
vt 0.742187 0.251499
vt 0.742188 0.127248
vt 0.773437 0.375749
vt 0.742187 0.375749
vt 0.773438 0.500000
vt 0.742188 0.500000
vt 0.773437 0.624250
vt 0.742188 0.624251
vt 0.773438 0.748501
vt 0.742188 0.748501
vt 0.773437 0.872752
vt 0.742188 0.872752
vt 0.773437 0.997003
vt 0.804687 0.997003
vt 0.835937 0.997003
vt 0.867187 0.997003
vt 0.898437 0.997003
vt 0.929687 0.997003
vt 0.960937 0.997003
vt -0.007812 0.997003
vt 0.023437 0.997003
vt 0.054687 0.997003
vt 0.085937 0.997003
vt 0.117187 0.997003
vt 0.148437 0.997003
vt 0.179687 0.997003
vt 0.210937 0.997003
vt 0.242187 0.997003
vt 0.273437 0.997003
vt 0.304687 0.997003
vt 0.335937 0.997003
vt 0.367187 0.997003
vt 0.398437 0.997003
vt 0.429687 0.997003
vt 0.460937 0.997003
vt 0.492187 0.997003
vt 0.523438 0.997003
vt 0.554688 0.997003
vt 0.585938 0.997003
vt 0.617188 0.997003
vt 0.648438 0.997003
vt 0.679688 0.997003
vt 0.710938 0.997003
vt 0.742188 0.997003
vt 0.757812 0.002997
vt 0.804687 0.624250
vt 0.804688 0.748501
vt 0.804687 0.872752
vt 0.789062 0.002997
vt 0.804688 0.127248
vt 0.804688 0.251499
vt 0.804687 0.375749
vt 0.804688 0.500000
vt 0.835938 0.127248
vt 0.835938 0.251499
vt 0.835937 0.375749
vt 0.835938 0.500000
vt 0.835937 0.624250
vt 0.835938 0.748501
vt 0.835937 0.872752
vt 0.820312 0.002997
vt 0.867187 0.624250
vt 0.867188 0.748501
vt 0.867187 0.872752
vt 0.851562 0.002997
vt 0.867188 0.127248
vt 0.867188 0.251499
vt 0.867187 0.375749
vt 0.867188 0.500000
vt 0.898438 0.251499
vt 0.898437 0.375749
vt 0.898438 0.500000
vt 0.898438 0.624250
vt 0.898438 0.748501
vt 0.898437 0.872752
vt 0.882812 0.002997
vt 0.898438 0.127248
vt 0.929688 0.748501
vt 0.929687 0.872752
vt 0.914062 0.002997
vt 0.929688 0.127248
vt 0.929688 0.251499
vt 0.929687 0.375749
vt 0.929688 0.500000
vt 0.929687 0.624250
vt 0.960937 0.251499
vt 0.960937 0.375749
vt 0.960938 0.500000
vt 0.960937 0.624250
vt 0.960938 0.748501
vt 0.960937 0.872752
vt 0.945312 0.002997
vt 0.960938 0.127248
vt 0.992188 0.748501
vt 0.992188 0.872752
vt 0.992188 0.997003
vt 0.976562 0.002997
vt 0.992188 0.127248
vt 0.992188 0.251499
vt 0.992188 0.375749
vt 0.992188 0.500000
vt 0.992188 0.624251
vt 0.023437 0.375749
vt 0.023438 0.500000
vt -0.007812 0.500000
vt -0.007812 0.375749
vt 0.023437 0.624251
vt -0.007812 0.624251
vt 0.023438 0.748501
vt -0.007812 0.748501
vt 0.023437 0.872752
vt -0.007812 0.872752
vt 0.007812 0.002997
vt 0.023438 0.127248
vt -0.007812 0.127248
vt 0.023437 0.251499
vt -0.007812 0.251499
vt 0.054688 0.872752
vt 0.039062 0.002997
vt 0.054688 0.127248
vt 0.054688 0.251499
vt 0.054688 0.375749
vt 0.054688 0.500000
vt 0.054688 0.624250
vt 0.054688 0.748501
vt 0.085938 0.500000
vt 0.085938 0.624251
vt 0.085938 0.748501
vt 0.085937 0.872752
vt 0.070312 0.002997
vt 0.085938 0.127248
vt 0.085938 0.251499
vt 0.085937 0.375749
vt 0.101562 0.002997
vt 0.117188 0.127248
vt 0.117188 0.251499
vt 0.117187 0.375749
vt 0.117188 0.500000
vt 0.117187 0.624251
vt 0.117188 0.748501
vt 0.117187 0.872752
vt 0.148437 0.500000
vt 0.148437 0.624251
vt 0.148438 0.748501
vt 0.148437 0.872752
vt 0.132813 0.002997
vt 0.148438 0.127248
vt 0.148437 0.251499
vt 0.148437 0.375749
vt 0.179688 0.127248
vt 0.179688 0.251499
vt 0.179687 0.375749
vt 0.179688 0.500000
vt 0.179688 0.624251
vt 0.179688 0.748501
vt 0.179687 0.872752
vt 0.164063 0.002997
vt 0.210938 0.624251
vt 0.210938 0.748501
vt 0.210938 0.872752
vt 0.195312 0.002997
vt 0.210938 0.127248
vt 0.210938 0.251499
vt 0.210938 0.375749
vt 0.210938 0.500000
vt 0.242188 0.127248
vt 0.242187 0.251499
vt 0.242187 0.375749
vt 0.242188 0.500000
vt 0.242187 0.624251
vt 0.242188 0.748501
vt 0.242187 0.872752
vt 0.226562 0.002997
vt 0.273438 0.624251
vt 0.273438 0.748501
vt 0.273438 0.872752
vt 0.257812 0.002997
vt 0.273438 0.127248
vt 0.273438 0.251499
vt 0.273437 0.375749
vt 0.273438 0.500000
vt 0.304688 0.251499
vt 0.304688 0.375749
vt 0.304688 0.500000
vt 0.304688 0.624251
vt 0.304688 0.748501
vt 0.304688 0.872752
vt 0.289062 0.002997
vt 0.304688 0.127248
vt 0.335938 0.748501
vt 0.335938 0.872752
vt 0.320312 0.002997
vt 0.335938 0.127248
vt 0.335938 0.251499
vt 0.335938 0.375749
vt 0.335938 0.500000
vt 0.335938 0.624251
vt 0.367187 0.375749
vt 0.367188 0.500000
vt 0.367188 0.624251
vt 0.367188 0.748501
vt 0.367188 0.872752
vt 0.351562 0.002997
vt 0.367188 0.127248
vt 0.367188 0.251499
vt 0.398438 0.872752
vt 0.382812 0.002997
vt 0.398438 0.127248
vt 0.398438 0.251499
vt 0.398438 0.375749
vt 0.398438 0.500000
vt 0.398438 0.624251
vt 0.398438 0.748501
vt 0.429687 0.375749
vt 0.429688 0.500000
vt 0.429687 0.624251
vt 0.429688 0.748501
vt 0.429688 0.872752
vt 0.414062 0.002997
vt 0.429688 0.127248
vt 0.429688 0.251499
vt 0.460938 0.872752
vt 0.445312 0.002997
vt 0.460938 0.127248
vt 0.460938 0.251499
vt 0.460938 0.375749
vt 0.460938 0.500000
vt 0.460937 0.624251
vt 0.460938 0.748501
vt 0.492188 0.500000
vt 0.492187 0.624251
vt 0.492188 0.748501
vt 0.492188 0.872752
vt 0.476562 0.002997
vt 0.492188 0.127248
vt 0.492188 0.251499
vt 0.492187 0.375749
vt 0.507812 0.002997
vt 0.523438 0.127248
vt 0.523438 0.251499
vt 0.523438 0.375749
vt 0.523438 0.500000
vt 0.523438 0.624251
vt 0.523438 0.748501
vt 0.523438 0.872752
vt 0.554688 0.500000
vt 0.554688 0.624251
vt 0.554688 0.748501
vt 0.554688 0.872752
vt 0.539062 0.002997
vt 0.554688 0.127248
vt 0.554688 0.251499
vt 0.554688 0.375749
vt 0.585938 0.127248
vt 0.585938 0.251499
vt 0.585938 0.375749
vt 0.585938 0.500000
vt 0.585938 0.624251
vt 0.585938 0.748501
vt 0.585938 0.872752
vt 0.570312 0.002997
vt 0.617188 0.624251
vt 0.617188 0.748501
vt 0.617188 0.872752
vt 0.601562 0.002997
vt 0.617188 0.127248
vt 0.617188 0.251499
vt 0.617188 0.375749
vt 0.617188 0.500000
vt 0.648438 0.251499
vt 0.648438 0.375749
vt 0.648438 0.500000
vt 0.648438 0.624251
vt 0.648438 0.748501
vt 0.648438 0.872752
vt 0.632812 0.002997
vt 0.648438 0.127248
vt 0.679688 0.748501
vt 0.679688 0.872752
vt 0.664062 0.002997
vt 0.679688 0.127248
vt 0.679688 0.251499
vt 0.679688 0.375749
vt 0.679688 0.500000
vt 0.679688 0.624251
vt 0.710938 0.251499
vt 0.710938 0.375749
vt 0.710938 0.500000
vt 0.710938 0.624251
vt 0.710938 0.748501
vt 0.710938 0.872752
vt 0.695312 0.002997
vt 0.710938 0.127248
vt 0.726562 0.002997
s 1
f 6/1/6 7/2/7 2/3/2 1/4/1
f 7/2/7 8/5/8 3/6/3 2/3/2
f 8/5/8 9/7/9 4/8/4 3/6/3
f 9/7/9 10/9/10 255/10/255 4/8/4
f 10/9/10 11/11/11 5/12/5 255/10/255
f 11/11/11 12/13/12 256/14/256 5/12/5
f 13/15/13 21/16/21 29/17/29 37/18/37 45/19/45 53/20/53 61/21/61 69/22/69 77/23/77 85/24/85 93/25/93 102/26/102 110/27/110 118/28/118 126/29/126 134/30/134 142/31/142 150/32/150 158/33/158 166/34/166 174/35/174 182/36/182 190/37/190 198/38/198 206/39/206 214/40/214 222/41/222 230/42/230 238/43/238 246/44/246 254/45/254 257/46/257
f 12/13/12 13/15/13 257/46/257 256/14/256
f 94/47/94 6/1/6 1/4/1
f 18/48/18 19/49/19 11/11/11 10/9/10
f 19/49/19 20/50/20 12/13/12 11/11/11
f 20/50/20 21/16/21 13/15/13 12/13/12
f 94/51/94 14/52/14 6/1/6
f 14/52/14 15/53/15 7/2/7 6/1/6
f 15/53/15 16/54/16 8/5/8 7/2/7
f 16/54/16 17/55/17 9/7/9 8/5/8
f 17/55/17 18/48/18 10/9/10 9/7/9
f 22/56/22 23/57/23 15/53/15 14/52/14
f 23/57/23 24/58/24 16/54/16 15/53/15
f 24/58/24 25/59/25 17/55/17 16/54/16
f 25/59/25 26/60/26 18/48/18 17/55/17
f 26/60/26 27/61/27 19/49/19 18/48/18
f 27/61/27 28/62/28 20/50/20 19/49/19
f 28/62/28 29/17/29 21/16/21 20/50/20
f 94/63/94 22/56/22 14/52/14
f 34/64/34 35/65/35 27/61/27 26/60/26
f 35/65/35 36/66/36 28/62/28 27/61/27
f 36/66/36 37/18/37 29/17/29 28/62/28
f 94/67/94 30/68/30 22/56/22
f 30/68/30 31/69/31 23/57/23 22/56/22
f 31/69/31 32/70/32 24/58/24 23/57/23
f 32/70/32 33/71/33 25/59/25 24/58/24
f 33/71/33 34/64/34 26/60/26 25/59/25
f 39/72/39 40/73/40 32/70/32 31/69/31
f 40/73/40 41/74/41 33/71/33 32/70/32
f 41/74/41 42/75/42 34/64/34 33/71/33
f 42/75/42 43/76/43 35/65/35 34/64/34
f 43/76/43 44/77/44 36/66/36 35/65/35
f 44/77/44 45/19/45 37/18/37 36/66/36
f 94/78/94 38/79/38 30/68/30
f 38/79/38 39/72/39 31/69/31 30/68/30
f 51/80/51 52/81/52 44/77/44 43/76/43
f 52/81/52 53/20/53 45/19/45 44/77/44
f 94/82/94 46/83/46 38/79/38
f 46/83/46 47/84/47 39/72/39 38/79/38
f 47/84/47 48/85/48 40/73/40 39/72/39
f 48/85/48 49/86/49 41/74/41 40/73/40
f 49/86/49 50/87/50 42/75/42 41/74/41
f 50/87/50 51/80/51 43/76/43 42/75/42
f 55/88/55 56/89/56 48/85/48 47/84/47
f 56/89/56 57/90/57 49/86/49 48/85/48
f 57/90/57 58/91/58 50/87/50 49/86/49
f 58/91/58 59/92/59 51/80/51 50/87/50
f 59/92/59 60/93/60 52/81/52 51/80/51
f 60/93/60 61/21/61 53/20/53 52/81/52
f 94/94/94 54/95/54 46/83/46
f 54/95/54 55/88/55 47/84/47 46/83/46
f 67/96/67 68/97/68 60/93/60 59/92/59
f 68/97/68 69/98/69 61/21/61 60/93/60
f 94/99/94 62/100/62 54/95/54
f 62/100/62 63/101/63 55/88/55 54/95/54
f 63/101/63 64/102/64 56/89/56 55/88/55
f 64/102/64 65/103/65 57/90/57 56/89/56
f 65/103/65 66/104/66 58/91/58 57/90/57
f 66/104/66 67/96/67 59/92/59 58/91/58
f 72/105/72 73/106/73 65/107/65 64/108/64
f 73/106/73 74/109/74 66/110/66 65/107/65
f 74/109/74 75/111/75 67/112/67 66/110/66
f 75/111/75 76/113/76 68/114/68 67/112/67
f 76/113/76 77/23/77 69/22/69 68/114/68
f 94/115/94 70/116/70 62/117/62
f 70/116/70 71/118/71 63/119/63 62/117/62
f 71/118/71 72/105/72 64/108/64 63/119/63
f 84/120/84 85/24/85 77/23/77 76/113/76
f 94/121/94 78/122/78 70/116/70
f 78/122/78 79/123/79 71/118/71 70/116/70
f 79/123/79 80/124/80 72/105/72 71/118/71
f 80/124/80 81/125/81 73/106/73 72/105/72
f 81/125/81 82/126/82 74/109/74 73/106/73
f 82/126/82 83/127/83 75/111/75 74/109/74
f 83/127/83 84/120/84 76/113/76 75/111/75
f 89/128/89 90/129/90 82/126/82 81/125/81
f 90/129/90 91/130/91 83/127/83 82/126/82
f 91/130/91 92/131/92 84/120/84 83/127/83
f 92/131/92 93/25/93 85/24/85 84/120/84
f 94/132/94 86/133/86 78/122/78
f 86/133/86 87/134/87 79/123/79 78/122/78
f 87/134/87 88/135/88 80/124/80 79/123/79
f 88/135/88 89/128/89 81/125/81 80/124/80
f 94/136/94 95/137/95 86/133/86
f 95/137/95 96/138/96 87/134/87 86/133/86
f 96/138/96 97/139/97 88/135/88 87/134/87
f 97/139/97 98/140/98 89/128/89 88/135/88
f 98/140/98 99/141/99 90/129/90 89/128/89
f 99/141/99 100/142/100 91/130/91 90/129/90
f 100/142/100 101/143/101 92/131/92 91/130/91
f 101/143/101 102/26/102 93/25/93 92/131/92
f 106/144/106 107/145/107 99/141/99 98/140/98
f 107/145/107 108/146/108 100/142/100 99/141/99
f 108/146/108 109/147/109 101/143/101 100/142/100
f 109/147/109 110/27/110 102/26/102 101/143/101
f 94/148/94 103/149/103 95/137/95
f 103/149/103 104/150/104 96/138/96 95/137/95
f 104/150/104 105/151/105 97/139/97 96/138/96
f 105/151/105 106/144/106 98/140/98 97/139/97
f 111/152/111 112/153/112 104/150/104 103/149/103
f 112/153/112 113/154/113 105/151/105 104/150/104
f 113/154/113 114/155/114 106/144/106 105/151/105
f 114/155/114 115/156/115 107/145/107 106/144/106
f 115/156/115 116/157/116 108/146/108 107/145/107
f 116/157/116 117/158/117 109/147/109 108/146/108
f 117/158/117 118/28/118 110/27/110 109/147/109
f 94/159/94 111/152/111 103/149/103
f 123/160/123 124/161/124 116/157/116 115/156/115
f 124/161/124 125/162/125 117/158/117 116/157/116
f 125/162/125 126/29/126 118/28/118 117/158/117
f 94/163/94 119/164/119 111/152/111
f 119/164/119 120/165/120 112/153/112 111/152/111
f 120/165/120 121/166/121 113/154/113 112/153/112
f 121/166/121 122/167/122 114/155/114 113/154/113
f 122/167/122 123/160/123 115/156/115 114/155/114
f 127/168/127 128/169/128 120/165/120 119/164/119
f 128/169/128 129/170/129 121/166/121 120/165/120
f 129/170/129 130/171/130 122/167/122 121/166/121
f 130/171/130 131/172/131 123/160/123 122/167/122
f 131/172/131 132/173/132 124/161/124 123/160/123
f 132/173/132 133/174/133 125/162/125 124/161/124
f 133/174/133 134/30/134 126/29/126 125/162/125
f 94/175/94 127/168/127 119/164/119
f 139/176/139 140/177/140 132/173/132 131/172/131
f 140/177/140 141/178/141 133/174/133 132/173/132
f 141/178/141 142/31/142 134/30/134 133/174/133
f 94/179/94 135/180/135 127/168/127
f 135/180/135 136/181/136 128/169/128 127/168/127
f 136/181/136 137/182/137 129/170/129 128/169/128
f 137/182/137 138/183/138 130/171/130 129/170/129
f 138/183/138 139/176/139 131/172/131 130/171/130
f 144/184/144 145/185/145 137/182/137 136/181/136
f 145/185/145 146/186/146 138/183/138 137/182/137
f 146/186/146 147/187/147 139/176/139 138/183/138
f 147/187/147 148/188/148 140/177/140 139/176/139
f 148/188/148 149/189/149 141/178/141 140/177/140
f 149/189/149 150/32/150 142/31/142 141/178/141
f 94/190/94 143/191/143 135/180/135
f 143/191/143 144/184/144 136/181/136 135/180/135
f 156/192/156 157/193/157 149/189/149 148/188/148
f 157/193/157 158/33/158 150/32/150 149/189/149
f 94/194/94 151/195/151 143/191/143
f 151/195/151 152/196/152 144/184/144 143/191/143
f 152/196/152 153/197/153 145/185/145 144/184/144
f 153/197/153 154/198/154 146/186/146 145/185/145
f 154/198/154 155/199/155 147/187/147 146/186/146
f 155/199/155 156/192/156 148/188/148 147/187/147
f 161/200/161 162/201/162 154/198/154 153/197/153
f 162/201/162 163/202/163 155/199/155 154/198/154
f 163/202/163 164/203/164 156/192/156 155/199/155
f 164/203/164 165/204/165 157/193/157 156/192/156
f 165/204/165 166/34/166 158/33/158 157/193/157
f 94/205/94 159/206/159 151/195/151
f 159/206/159 160/207/160 152/196/152 151/195/151
f 160/207/160 161/200/161 153/197/153 152/196/152
f 173/208/173 174/35/174 166/34/166 165/204/165
f 94/209/94 167/210/167 159/206/159
f 167/210/167 168/211/168 160/207/160 159/206/159
f 168/211/168 169/212/169 161/200/161 160/207/160
f 169/212/169 170/213/170 162/201/162 161/200/161
f 170/213/170 171/214/171 163/202/163 162/201/162
f 171/214/171 172/215/172 164/203/164 163/202/163
f 172/215/172 173/208/173 165/204/165 164/203/164
f 177/216/177 178/217/178 170/213/170 169/212/169
f 178/217/178 179/218/179 171/214/171 170/213/170
f 179/218/179 180/219/180 172/215/172 171/214/171
f 180/219/180 181/220/181 173/208/173 172/215/172
f 181/220/181 182/36/182 174/35/174 173/208/173
f 94/221/94 175/222/175 167/210/167
f 175/222/175 176/223/176 168/211/168 167/210/167
f 176/223/176 177/216/177 169/212/169 168/211/168
f 189/224/189 190/37/190 182/36/182 181/220/181
f 94/225/94 183/226/183 175/222/175
f 183/226/183 184/227/184 176/223/176 175/222/175
f 184/227/184 185/228/185 177/216/177 176/223/176
f 185/228/185 186/229/186 178/217/178 177/216/177
f 186/229/186 187/230/187 179/218/179 178/217/178
f 187/230/187 188/231/188 180/219/180 179/218/179
f 188/231/188 189/224/189 181/220/181 180/219/180
f 194/232/194 195/233/195 187/230/187 186/229/186
f 195/233/195 196/234/196 188/231/188 187/230/187
f 196/234/196 197/235/197 189/224/189 188/231/188
f 197/235/197 198/38/198 190/37/190 189/224/189
f 94/236/94 191/237/191 183/226/183
f 191/237/191 192/238/192 184/227/184 183/226/183
f 192/238/192 193/239/193 185/228/185 184/227/184
f 193/239/193 194/232/194 186/229/186 185/228/185
f 94/240/94 199/241/199 191/237/191
f 199/241/199 200/242/200 192/238/192 191/237/191
f 200/242/200 201/243/201 193/239/193 192/238/192
f 201/243/201 202/244/202 194/232/194 193/239/193
f 202/244/202 203/245/203 195/233/195 194/232/194
f 203/245/203 204/246/204 196/234/196 195/233/195
f 204/246/204 205/247/205 197/235/197 196/234/196
f 205/247/205 206/39/206 198/38/198 197/235/197
f 210/248/210 211/249/211 203/245/203 202/244/202
f 211/249/211 212/250/212 204/246/204 203/245/203
f 212/250/212 213/251/213 205/247/205 204/246/204
f 213/251/213 214/40/214 206/39/206 205/247/205
f 94/252/94 207/253/207 199/241/199
f 207/253/207 208/254/208 200/242/200 199/241/199
f 208/254/208 209/255/209 201/243/201 200/242/200
f 209/255/209 210/248/210 202/244/202 201/243/201
f 215/256/215 216/257/216 208/254/208 207/253/207
f 216/257/216 217/258/217 209/255/209 208/254/208
f 217/258/217 218/259/218 210/248/210 209/255/209
f 218/259/218 219/260/219 211/249/211 210/248/210
f 219/260/219 220/261/220 212/250/212 211/249/211
f 220/261/220 221/262/221 213/251/213 212/250/212
f 221/262/221 222/41/222 214/40/214 213/251/213
f 94/263/94 215/256/215 207/253/207
f 227/264/227 228/265/228 220/261/220 219/260/219
f 228/265/228 229/266/229 221/262/221 220/261/220
f 229/266/229 230/42/230 222/41/222 221/262/221
f 94/267/94 223/268/223 215/256/215
f 223/268/223 224/269/224 216/257/216 215/256/215
f 224/269/224 225/270/225 217/258/217 216/257/216
f 225/270/225 226/271/226 218/259/218 217/258/217
f 226/271/226 227/264/227 219/260/219 218/259/218
f 232/272/232 233/273/233 225/270/225 224/269/224
f 233/273/233 234/274/234 226/271/226 225/270/225
f 234/274/234 235/275/235 227/264/227 226/271/226
f 235/275/235 236/276/236 228/265/228 227/264/227
f 236/276/236 237/277/237 229/266/229 228/265/228
f 237/277/237 238/43/238 230/42/230 229/266/229
f 94/278/94 231/279/231 223/268/223
f 231/279/231 232/272/232 224/269/224 223/268/223
f 244/280/244 245/281/245 237/277/237 236/276/236
f 245/281/245 246/44/246 238/43/238 237/277/237
f 94/282/94 239/283/239 231/279/231
f 239/283/239 240/284/240 232/272/232 231/279/231
f 240/284/240 241/285/241 233/273/233 232/272/232
f 241/285/241 242/286/242 234/274/234 233/273/233
f 242/286/242 243/287/243 235/275/235 234/274/234
f 243/287/243 244/280/244 236/276/236 235/275/235
f 248/288/248 249/289/249 241/285/241 240/284/240
f 249/289/249 250/290/250 242/286/242 241/285/241
f 250/290/250 251/291/251 243/287/243 242/286/242
f 251/291/251 252/292/252 244/280/244 243/287/243
f 252/292/252 253/293/253 245/281/245 244/280/244
f 253/293/253 254/45/254 246/44/246 245/281/245
f 94/294/94 247/295/247 239/283/239
f 247/295/247 248/288/248 240/284/240 239/283/239
f 1/4/1 2/3/2 248/288/248 247/295/247
f 2/3/2 3/6/3 249/289/249 248/288/248
f 3/6/3 4/8/4 250/290/250 249/289/249
f 4/8/4 255/10/255 251/291/251 250/290/250
f 255/10/255 5/12/5 252/292/252 251/291/251
f 5/12/5 256/14/256 253/293/253 252/292/252
f 256/14/256 257/46/257 254/45/254 253/293/253
f 94/296/94 1/4/1 247/295/247
